<svg width="24" height="24" viewBox="0 0 24 24" fill="none" xmlns="http://www.w3.org/2000/svg">
<g clip-path="url(#clip0_964_17642)">
<path d="M24.0004 4.46548C23.1188 4.85141 22.1594 5.12917 21.1711 5.23735C22.1971 4.61879 22.9655 3.64156 23.332 2.48901C22.3692 3.07022 21.3145 3.47778 20.2146 3.6936C19.7549 3.19488 19.1989 2.79758 18.5813 2.52645C17.9636 2.25532 17.2976 2.11618 16.6247 2.11769C13.902 2.11769 11.7123 4.3573 11.7123 7.10564C11.7123 7.49158 11.7584 7.87752 11.8333 8.24884C7.7565 8.03248 4.12048 6.05601 1.7032 3.0299C1.26274 3.79335 1.03193 4.66261 1.03477 5.54727C1.03477 7.27814 1.902 8.80435 3.22444 9.70195C2.44511 9.6708 1.68402 9.45342 1.00308 9.06749V9.12889C1.00308 11.5527 2.69143 13.5613 4.94161 14.0233C4.51912 14.1347 4.08449 14.1916 3.64797 14.1929C3.32817 14.1929 3.02565 14.1607 2.72024 14.1168C3.34257 16.0933 5.15482 17.5289 7.3128 17.5757C5.62444 18.9177 3.50968 19.7071 1.2134 19.7071C0.801397 19.7071 0.421085 19.6925 0.0263672 19.6457C2.20452 21.0637 4.78891 21.8824 7.5721 21.8824C16.6074 21.8824 21.5514 14.2864 21.5514 7.69332C21.5514 7.47696 21.5514 7.2606 21.537 7.04424C22.4936 6.33377 23.332 5.45371 24.0004 4.46548Z" fill="#21A6DF"/>
</g>
<defs>
<clipPath id="clip0_964_17642">
<rect width="24" height="24" fill="white"/>
</clipPath>
</defs>
</svg>
