<svg width="24" height="24" viewBox="0 0 24 24" fill="none" xmlns="http://www.w3.org/2000/svg">
<path d="M23.4699 5.93166C23.3335 5.3987 23.0663 4.91276 22.6951 4.52249C22.324 4.13221 21.8619 3.85129 21.355 3.70783C19.4884 3.17664 11.9879 3.17664 11.9879 3.17664C11.9879 3.17664 4.48729 3.17664 2.62071 3.70783C2.11385 3.85129 1.65172 4.13221 1.28057 4.52249C0.90941 4.91276 0.642248 5.3987 0.50582 5.93166C0.157288 7.93335 -0.0118455 9.96501 0.000644257 11.9999C-0.0118455 14.0348 0.157288 16.0665 0.50582 18.0682C0.642248 18.6012 0.90941 19.0871 1.28057 19.4774C1.65172 19.8676 2.11385 20.1486 2.62071 20.292C4.48729 20.8232 11.9879 20.8232 11.9879 20.8232C11.9879 20.8232 19.4884 20.8232 21.355 20.292C21.8619 20.1486 22.324 19.8676 22.6951 19.4774C23.0663 19.0871 23.3335 18.6012 23.4699 18.0682C23.8184 16.0665 23.9876 14.0348 23.9751 11.9999C23.9876 9.96501 23.8184 7.93335 23.4699 5.93166ZM9.59041 15.7813V8.21852L15.8152 11.9999L9.59041 15.7813Z" fill="#E42F08"/>
</svg>
