<svg width="73" height="72" viewBox="0 0 73 72" fill="none" xmlns="http://www.w3.org/2000/svg">
<path d="M70.3484 0.873659C69.9592 0.470699 69.4674 0.191705 68.9308 0.0694792C68.3943 -0.0527461 67.8354 -0.0131216 67.3198 0.183694L3.8615 24.1825C3.31422 24.3983 2.84305 24.7823 2.51056 25.2833C2.17807 25.7843 2 26.3786 2 26.9873C2 27.596 2.17807 28.1904 2.51056 28.6914C2.84305 29.1924 3.31422 29.5763 3.8615 29.7922L31.5524 41.3116L42.6287 70.1101C42.8368 70.6543 43.1935 71.1232 43.6549 71.459C44.1162 71.7948 44.6619 71.9829 45.2248 72C45.8077 71.9876 46.3733 71.7917 46.847 71.4383C47.3207 71.0848 47.6804 70.5904 47.8785 70.0201L70.9542 4.0235C71.1507 3.49275 71.1981 2.91484 71.0909 2.35715C70.9836 1.79946 70.7261 1.28497 70.3484 0.873659ZM45.2248 60.6006L37.1771 39.6017L50.9937 25.2324L46.9266 21.0026L32.9946 35.4919L12.9187 27.0023L63.4834 8.01329L45.2248 60.6006Z" fill="#0D5C63"/>
</svg>
